# xmcd CD database file
#
# Track frame offsets:
#	150
#	15226
#	29584
#	54266
#	73414
#	100175
#	116222
#	129813
#	146674
#	176051
#
# Disc length: 2402 seconds
#
# Revision: 0
# Processed by: cddbd v1.5.1PL0 Copyright (c) Steve Scherf et al.
# Submitted via: CDex 1.60beta1
#
DISCID=8909600a
DTITLE=A NULL FUNCTION - Sweet Memories -Last Chapter Of The XXX-
DYEAR=1900
DGENRE=ゲーム
TTITLE0=眠りの森
TTITLE1=Disease Germ
TTITLE2=XX-MiME:Destructive Cipher Ver.
TTITLE3=惨劇ノ夜 煉獄ノ慟哭ニ狂フ修羅
TTITLE4=Sweet Memories
TTITLE5=The Birth Of The Nightmare
TTITLE6=筋肉で遊びまくろう For XP
TTITLE7=Rainy Night
TTITLE8=2nd Contact -Dead Moon Night-
TTITLE9=データトラック
EXTD=
EXTT0=
EXTT1=
EXTT2=
EXTT3=
EXTT4=
EXTT5=
EXTT6=
EXTT7=
EXTT8=
EXTT9=
PLAYORDER=
